<svg width="186" height="167" viewBox="0 0 186 167" fill="none" xmlns="http://www.w3.org/2000/svg">
<path d="M185.464 73.3921C185.464 124.55 143.986 166.042 92.8135 166.042C41.6404 166.042 0.148522 124.55 0.148522 73.3921C0.144833 68.2134 0.576733 63.0436 1.43966 57.9374C5.09376 79.5273 16.2749 99.1258 33.0008 113.258C49.7266 127.39 70.9165 135.144 92.8135 135.143C138.724 135.143 176.83 101.748 184.173 57.9325C185.038 63.0401 185.47 68.2117 185.464 73.3921Z" fill="url(#paint0_linear_360_56)"/>
<path d="M92.8134 148.717C44.5296 148.717 4.92328 111.824 0.567507 64.7098C0.299534 67.5698 0.148499 70.459 0.148499 73.3872C0.148499 124.546 41.6307 166.038 92.8134 166.038C143.996 166.038 185.464 124.55 185.464 73.3921C185.464 70.4687 185.318 67.5746 185.05 64.7146C180.689 111.824 141.068 148.717 92.8134 148.717Z" fill="url(#paint1_linear_360_56)"/>
<path d="M171.817 51.3891V76.3982C165.279 89.7827 155.58 101.373 143.558 110.168V51.3891H171.817Z" fill="url(#paint2_linear_360_56)"/>
<path d="M13.7956 51.3891V76.3982C20.3329 89.7827 30.0321 101.373 42.0545 110.168V51.3891H13.7956Z" fill="url(#paint3_linear_360_56)"/>
<path d="M92.8086 76.5785H50.5323V80.603C50.5336 81.6475 50.9494 82.6488 51.6885 83.387C52.4275 84.1251 53.4294 84.5397 54.4739 84.5397H131.143C131.66 84.5397 132.172 84.4379 132.65 84.2401C133.127 84.0422 133.561 83.7523 133.927 83.3867C134.293 83.0211 134.583 82.5871 134.78 82.1095C134.978 81.6319 135.08 81.12 135.08 80.603V76.5785H92.8086Z" fill="url(#paint4_linear_360_56)"/>
<path d="M14.8334 48.0565H41.0412C41.5581 48.0565 42.0701 47.9547 42.5477 47.7568C43.0253 47.559 43.4593 47.269 43.8249 46.9034C44.1904 46.5379 44.4804 46.1039 44.6782 45.6263C44.8761 45.1486 44.9779 44.6367 44.9779 44.1197V41.6349H10.9113V44.1197C10.9126 45.1609 11.3257 46.1593 12.0606 46.8969C12.7954 47.6345 13.7923 48.0513 14.8334 48.0565Z" fill="url(#paint5_linear_360_56)"/>
<path d="M42.7708 41.6398C45.5967 40.2268 48.9829 33.8734 44.8902 29.0694C40.7975 24.2654 27.9348 22.4286 27.9348 18.8962C27.9348 22.4286 15.0819 24.2556 10.9844 29.0694C6.88682 33.8832 10.2779 40.2268 13.1038 41.6398H42.7708Z" fill="url(#paint6_linear_360_56)"/>
<path d="M31.477 0.839706C32.3666 2.41931 32.7151 4.24657 32.4693 6.04273C32.2234 7.83888 31.3968 9.50531 30.1154 10.7878C28.834 12.0702 27.1683 12.8983 25.3724 13.1457C23.5764 13.3931 21.7489 13.0462 20.1685 12.1579C20.7971 13.2765 21.6761 14.2345 22.7367 14.9566C23.7974 15.6788 25.0108 16.1456 26.2819 16.3205C27.5531 16.4954 28.8475 16.3737 30.0638 15.9648C31.28 15.5558 32.3851 14.8709 33.2924 13.9636C34.1997 13.0563 34.8847 11.9512 35.2936 10.735C35.7025 9.51871 35.8243 8.22431 35.6494 6.95314C35.4745 5.68197 35.0076 4.46855 34.2855 3.40793C33.5633 2.34731 32.6053 1.46828 31.4867 0.839706H31.477Z" fill="url(#paint7_linear_360_56)"/>
<path d="M92.8086 76.5785H58.0599C51.4434 73.2703 43.5016 58.3759 53.0951 47.1259C62.6885 35.8759 92.8086 31.5737 92.8086 23.3007C92.8086 31.5835 122.919 35.8759 132.517 47.1259C142.116 58.3759 134.174 73.2703 127.552 76.5785H92.8086Z" fill="url(#paint8_linear_360_56)"/>
<path d="M89.2665 1.72159C88.352 3.30102 87.9848 5.13825 88.2219 6.94784C88.4591 8.75742 89.2872 10.438 90.5777 11.7285C91.8682 13.019 93.5488 13.8472 95.3584 14.0843C97.168 14.3214 99.0052 13.9542 100.585 13.0398C99.9561 14.1584 99.0771 15.1163 98.0164 15.8385C96.9558 16.5607 95.7424 17.0275 94.4712 17.2024C93.2001 17.3773 91.9057 17.2555 90.6894 16.8466C89.4732 16.4377 88.3681 15.7528 87.4608 14.8455C86.5535 13.9381 85.8685 12.8331 85.4596 11.6168C85.0507 10.4006 84.9289 9.10619 85.1038 7.83502C85.2787 6.56385 85.7455 5.35043 86.4677 4.28981C87.1899 3.22918 88.1478 2.35016 89.2665 1.72159Z" fill="url(#paint9_linear_360_56)"/>
<path d="M92.8134 88.1939H53.6017V117.281C62.2255 121.738 71.5467 124.691 81.1639 126.012V114.27C78.9471 113.159 76.2917 108.17 79.5025 104.399C82.7133 100.628 92.8085 99.1905 92.8085 96.4182C92.8085 99.1905 102.899 100.628 106.115 104.399C109.33 108.17 106.67 113.169 104.448 114.27V126.012C114.066 124.696 123.389 121.748 132.015 117.296V88.2085L92.8134 88.1939Z" fill="url(#paint10_linear_360_56)"/>
<path d="M170.784 48.0565H144.576C143.531 48.0565 142.53 47.6419 141.791 46.9037C141.051 46.1656 140.636 45.1643 140.634 44.1197V41.6349H174.74V44.1197C174.74 44.6383 174.637 45.1519 174.438 45.6308C174.239 46.1097 173.948 46.5445 173.58 46.9103C173.212 47.2762 172.776 47.5657 172.296 47.7624C171.816 47.9591 171.302 48.059 170.784 48.0565Z" fill="url(#paint11_linear_360_56)"/>
<path d="M142.846 41.6398C140.021 40.2268 136.629 33.8734 140.727 29.0694C144.825 24.2654 157.677 22.4286 157.677 18.8962C157.677 22.4286 170.535 24.2556 174.628 29.0694C178.721 33.8832 175.334 40.2268 172.513 41.6398H142.846Z" fill="url(#paint12_linear_360_56)"/>
<path d="M154.155 0.839706C153.262 2.42023 152.912 4.24956 153.158 6.04797C153.403 7.84638 154.231 9.51489 155.514 10.7984C156.798 12.0818 158.466 12.9096 160.265 13.1551C162.063 13.4006 163.892 13.0504 165.473 12.1579C164.844 13.2765 163.965 14.2345 162.905 14.9566C161.844 15.6788 160.631 16.1456 159.36 16.3205C158.088 16.4954 156.794 16.3737 155.578 15.9648C154.362 15.5558 153.256 14.8709 152.349 13.9636C151.442 13.0563 150.757 11.9512 150.348 10.735C149.939 9.51871 149.817 8.22431 149.992 6.95314C150.167 5.68197 150.634 4.46855 151.356 3.40793C152.078 2.34731 153.036 1.46828 154.155 0.839706Z" fill="url(#paint13_linear_360_56)"/>
<defs>
<linearGradient id="paint0_linear_360_56" x1="92.8062" y1="57.9325" x2="92.8062" y2="166.042" gradientUnits="userSpaceOnUse">
<stop stop-color="#C0A37C"/>
<stop offset="1" stop-color="#FFD482"/>
</linearGradient>
<linearGradient id="paint1_linear_360_56" x1="92.8061" y1="64.7098" x2="92.8061" y2="166.038" gradientUnits="userSpaceOnUse">
<stop stop-color="#C0A37C"/>
<stop offset="1" stop-color="#FFD482"/>
</linearGradient>
<linearGradient id="paint2_linear_360_56" x1="157.687" y1="51.3891" x2="157.687" y2="110.168" gradientUnits="userSpaceOnUse">
<stop stop-color="#C0A37C"/>
<stop offset="1" stop-color="#FFD482"/>
</linearGradient>
<linearGradient id="paint3_linear_360_56" x1="27.9251" y1="51.3891" x2="27.9251" y2="110.168" gradientUnits="userSpaceOnUse">
<stop stop-color="#C0A37C"/>
<stop offset="1" stop-color="#FFD482"/>
</linearGradient>
<linearGradient id="paint4_linear_360_56" x1="92.8062" y1="76.5785" x2="92.8062" y2="84.5397" gradientUnits="userSpaceOnUse">
<stop stop-color="#C0A37C"/>
<stop offset="1" stop-color="#FFD482"/>
</linearGradient>
<linearGradient id="paint5_linear_360_56" x1="27.9446" y1="41.6349" x2="27.9446" y2="48.0565" gradientUnits="userSpaceOnUse">
<stop stop-color="#C0A37C"/>
<stop offset="1" stop-color="#FFD482"/>
</linearGradient>
<linearGradient id="paint6_linear_360_56" x1="27.9362" y1="18.8962" x2="27.9362" y2="41.6398" gradientUnits="userSpaceOnUse">
<stop stop-color="#C0A37C"/>
<stop offset="1" stop-color="#FFD482"/>
</linearGradient>
<linearGradient id="paint7_linear_360_56" x1="27.9477" y1="0.839706" x2="27.9477" y2="16.3981" gradientUnits="userSpaceOnUse">
<stop stop-color="#C0A37C"/>
<stop offset="1" stop-color="#FFD482"/>
</linearGradient>
<linearGradient id="paint8_linear_360_56" x1="92.8078" y1="23.3007" x2="92.8078" y2="76.5785" gradientUnits="userSpaceOnUse">
<stop stop-color="#C0A37C"/>
<stop offset="1" stop-color="#FFD482"/>
</linearGradient>
<linearGradient id="paint9_linear_360_56" x1="92.8055" y1="1.72159" x2="92.8055" y2="17.28" gradientUnits="userSpaceOnUse">
<stop stop-color="#C0A37C"/>
<stop offset="1" stop-color="#FFD482"/>
</linearGradient>
<linearGradient id="paint10_linear_360_56" x1="92.8085" y1="88.1939" x2="92.8085" y2="126.012" gradientUnits="userSpaceOnUse">
<stop stop-color="#C0A37C"/>
<stop offset="1" stop-color="#FFD482"/>
</linearGradient>
<linearGradient id="paint11_linear_360_56" x1="157.687" y1="41.6349" x2="157.687" y2="48.0565" gradientUnits="userSpaceOnUse">
<stop stop-color="#C0A37C"/>
<stop offset="1" stop-color="#FFD482"/>
</linearGradient>
<linearGradient id="paint12_linear_360_56" x1="157.676" y1="18.8962" x2="157.676" y2="41.6398" gradientUnits="userSpaceOnUse">
<stop stop-color="#C0A37C"/>
<stop offset="1" stop-color="#FFD482"/>
</linearGradient>
<linearGradient id="paint13_linear_360_56" x1="157.694" y1="0.839706" x2="157.694" y2="16.3981" gradientUnits="userSpaceOnUse">
<stop stop-color="#C0A37C"/>
<stop offset="1" stop-color="#FFD482"/>
</linearGradient>
</defs>
</svg>
